<?xml version="1.0" encoding="utf-8"?>
<!-- Generator: Adobe Illustrator 16.0.0, SVG Export Plug-In . SVG Version: 6.00 Build 0)  -->
<!DOCTYPE svg PUBLIC "-//W3C//DTD SVG 1.1//EN" "http://www.w3.org/Graphics/SVG/1.1/DTD/svg11.dtd">
<svg version="1.1" id="Layer_1" xmlns="http://www.w3.org/2000/svg" xmlns:xlink="http://www.w3.org/1999/xlink" x="0px" y="0px"
	 width="240px" height="240px" viewBox="22.232 23.232 240 240" enable-background="new 22.232 23.232 240 240"
	 xml:space="preserve">
<g>
	<g>
		<defs>
			<rect id="SVGID_1_" width="283.465" height="283.465"/>
		</defs>
		<clipPath id="SVGID_2_">
			<use xlink:href="#SVGID_1_"  overflow="visible"/>
		</clipPath>
		<path clip-path="url(#SVGID_2_)" fill="#004997" d="M55.942,156.607c1.175-0.162,2.306-0.243,3.393-0.243
			c1.146,0,2.276,0.081,3.393,0.243l7.27,16.744l7.491-16.744c0.909-0.162,1.923-0.243,3.039-0.243c1.116,0,2.188,0.081,3.217,0.243
			L83.61,185.83c-1.116,0.163-2.173,0.244-3.172,0.244s-1.983-0.081-2.952-0.244l0.839-19.833l-8.944,19.254l-8.416-19.539
			l0.557,20.118c-0.941,0.163-1.851,0.244-2.732,0.244c-0.94,0-1.91-0.081-2.909-0.244L55.942,156.607z"/>
	</g>
	<g>
		<defs>
			<rect id="SVGID_3_" width="283.465" height="283.465"/>
		</defs>
		<clipPath id="SVGID_4_">
			<use xlink:href="#SVGID_3_"  overflow="visible"/>
		</clipPath>
		<path clip-path="url(#SVGID_4_)" fill="#004997" d="M94.333,177.091c0.108,1.626,0.678,2.806,1.707,3.537s2.384,1.099,4.065,1.099
			c0.92,0,1.862-0.09,2.825-0.266c0.961-0.176,1.876-0.427,2.743-0.752c0.298,0.543,0.555,1.193,0.772,1.951
			c0.216,0.759,0.338,1.57,0.366,2.438c-2.114,0.812-4.498,1.221-7.154,1.221c-1.95,0-3.624-0.271-5.019-0.813
			c-1.396-0.541-2.533-1.293-3.413-2.255c-0.881-0.962-1.532-2.105-1.952-3.436c-0.42-1.326-0.629-2.776-0.629-4.35
			c0-1.544,0.216-2.994,0.65-4.349c0.433-1.355,1.077-2.532,1.931-3.535c0.853-1.002,1.91-1.795,3.17-2.378
			c1.259-0.582,2.729-0.874,4.409-0.874c1.464,0,2.763,0.258,3.902,0.772c1.138,0.515,2.107,1.22,2.905,2.111
			c0.799,0.896,1.403,1.958,1.809,3.191c0.407,1.231,0.61,2.555,0.61,3.963c0,0.514-0.02,1.023-0.061,1.523
			c-0.04,0.502-0.088,0.9-0.142,1.197H94.333V177.091z M102.584,173.068c-0.055-1.301-0.413-2.353-1.077-3.149
			c-0.664-0.799-1.592-1.2-2.784-1.2c-1.356,0-2.385,0.381-3.089,1.139c-0.705,0.76-1.125,1.83-1.26,3.211H102.584L102.584,173.068z
			"/>
	</g>
	<g>
		<defs>
			<rect id="SVGID_5_" width="283.465" height="283.465"/>
		</defs>
		<clipPath id="SVGID_6_">
			<use xlink:href="#SVGID_5_"  overflow="visible"/>
		</clipPath>
		<path clip-path="url(#SVGID_6_)" fill="#004997" d="M125.181,156.12c0.488-0.081,0.969-0.136,1.443-0.162s0.941-0.041,1.402-0.041
			s0.935,0.015,1.423,0.041c0.487,0.026,0.975,0.081,1.462,0.162v29.021c-1.273,0.379-2.567,0.67-3.88,0.873
			c-1.315,0.203-2.907,0.305-4.776,0.305c-1.436,0-2.811-0.196-4.126-0.59c-1.314-0.393-2.472-1.016-3.474-1.869
			c-1.003-0.854-1.795-1.957-2.378-3.312s-0.873-3.008-0.873-4.959c0-1.544,0.25-3,0.752-4.368c0.501-1.368,1.218-2.554,2.153-3.557
			c0.935-1.002,2.066-1.795,3.393-2.378c1.328-0.582,2.805-0.873,4.431-0.873c0.487,0,0.995,0.02,1.524,0.061
			c0.528,0.041,1.037,0.129,1.524,0.264V156.12L125.181,156.12z M125.181,169.167c-0.542-0.137-0.982-0.226-1.32-0.267
			c-0.34-0.039-0.767-0.06-1.281-0.06c-0.894,0-1.673,0.183-2.336,0.55c-0.666,0.364-1.214,0.854-1.647,1.463
			c-0.434,0.608-0.752,1.328-0.955,2.153c-0.203,0.826-0.305,1.687-0.305,2.58c0,1.111,0.135,2.054,0.407,2.825
			c0.27,0.771,0.643,1.389,1.118,1.85c0.473,0.461,1.036,0.793,1.686,0.995c0.651,0.203,1.355,0.306,2.113,0.306
			c0.46,0,0.88-0.021,1.26-0.062c0.379-0.041,0.799-0.128,1.26-0.267V169.167z"/>
	</g>
	<g>
		<defs>
			<rect id="SVGID_7_" width="283.465" height="283.465"/>
		</defs>
		<clipPath id="SVGID_8_">
			<use xlink:href="#SVGID_7_"  overflow="visible"/>
		</clipPath>
		<path clip-path="url(#SVGID_8_)" fill="#004997" d="M137.618,169.207h-2.723c-0.081-0.352-0.143-0.725-0.183-1.117
			c-0.041-0.393-0.061-0.766-0.061-1.119c0-0.729,0.081-1.447,0.244-2.152h8.371v21.013c-0.976,0.163-1.923,0.244-2.844,0.244
			c-0.894,0-1.829-0.081-2.804-0.244V169.207z M136.764,161.282c-0.162-0.921-0.243-1.829-0.243-2.724
			c0-0.867,0.081-1.773,0.243-2.724c0.461-0.081,0.955-0.144,1.483-0.183c0.529-0.041,1.01-0.062,1.444-0.062
			c0.46,0,0.961,0.021,1.504,0.062c0.541,0.039,1.042,0.102,1.504,0.183c0.08,0.461,0.134,0.914,0.16,1.36
			c0.027,0.447,0.041,0.9,0.041,1.361c0,0.436-0.014,0.881-0.041,1.342c-0.026,0.461-0.08,0.922-0.16,1.383
			c-0.463,0.08-0.956,0.136-1.484,0.162c-0.528,0.025-1.022,0.041-1.483,0.041c-0.434,0-0.921-0.016-1.463-0.041
			C137.727,161.417,137.225,161.363,136.764,161.282"/>
	</g>
	<g>
		<defs>
			<rect id="SVGID_9_" width="283.465" height="283.465"/>
		</defs>
		<clipPath id="SVGID_10_">
			<use xlink:href="#SVGID_9_"  overflow="visible"/>
		</clipPath>
		<path clip-path="url(#SVGID_10_)" fill="#004997" d="M148.835,164.777c0.379-0.082,0.752-0.135,1.117-0.162
			c0.366-0.027,0.778-0.041,1.239-0.041c0.759,0,1.531,0.08,2.316,0.244c0.081,0.136,0.156,0.332,0.225,0.589
			c0.066,0.258,0.135,0.534,0.203,0.833c0.066,0.299,0.121,0.59,0.162,0.874s0.073,0.521,0.102,0.711
			c0.244-0.433,0.542-0.86,0.895-1.28c0.352-0.419,0.779-0.792,1.281-1.118c0.501-0.323,1.062-0.589,1.686-0.793
			c0.623-0.202,1.314-0.304,2.072-0.304c1.165,0,2.256,0.217,3.272,0.65c1.016,0.434,1.903,1.09,2.661,1.972
			c0.759,0.881,1.35,1.983,1.769,3.312c0.42,1.327,0.63,2.9,0.63,4.715c0,1.763-0.257,3.34-0.771,4.734
			c-0.516,1.396-1.26,2.581-2.234,3.557c-0.977,0.977-2.168,1.729-3.577,2.256s-3.007,0.793-4.796,0.793
			c-0.46,0-0.914-0.021-1.361-0.062c-0.447-0.04-0.819-0.087-1.117-0.141v9.347c-0.516,0.082-1.01,0.135-1.482,0.163
			c-0.475,0.026-0.941,0.041-1.402,0.041s-0.928-0.015-1.401-0.041c-0.476-0.028-0.97-0.081-1.483-0.163v-30.686H148.835z
			 M154.605,181.359c0.731,0.218,1.57,0.324,2.521,0.324c1.679,0,2.966-0.541,3.858-1.625c0.896-1.084,1.343-2.724,1.343-4.918
			c0-0.841-0.068-1.619-0.202-2.338c-0.137-0.717-0.367-1.335-0.691-1.849c-0.326-0.515-0.738-0.921-1.24-1.22
			s-1.117-0.446-1.85-0.446c-0.677,0-1.253,0.129-1.727,0.385c-0.475,0.259-0.861,0.61-1.158,1.058
			c-0.299,0.446-0.516,0.97-0.65,1.564c-0.137,0.598-0.203,1.232-0.203,1.91V181.359L154.605,181.359z"/>
	</g>
	<g>
		<defs>
			<rect id="SVGID_11_" width="283.465" height="283.465"/>
		</defs>
		<clipPath id="SVGID_12_">
			<use xlink:href="#SVGID_11_"  overflow="visible"/>
		</clipPath>
		<path clip-path="url(#SVGID_12_)" fill="#004997" d="M181.876,186.318c-1.707,0-3.188-0.279-4.45-0.834
			c-1.26-0.555-2.303-1.327-3.129-2.316c-0.826-0.988-1.449-2.146-1.869-3.475c-0.421-1.329-0.631-2.765-0.631-4.31
			c0-1.544,0.21-2.993,0.631-4.35c0.42-1.354,1.043-2.525,1.869-3.515c0.826-0.988,1.869-1.769,3.129-2.338
			c1.262-0.567,2.743-0.854,4.45-0.854s3.197,0.285,4.472,0.854c1.272,0.569,2.329,1.35,3.172,2.338
			c0.838,0.988,1.461,2.16,1.867,3.515c0.406,1.356,0.609,2.806,0.609,4.35c0,1.545-0.203,2.98-0.609,4.31
			c-0.406,1.328-1.029,2.485-1.867,3.475c-0.843,0.989-1.898,1.762-3.172,2.316C185.073,186.038,183.583,186.318,181.876,186.318
			 M181.876,181.93c1.519,0,2.606-0.562,3.272-1.688c0.664-1.124,0.996-2.742,0.996-4.856c0-2.113-0.332-3.73-0.996-4.855
			c-0.666-1.124-1.754-1.688-3.272-1.688c-1.489,0-2.565,0.562-3.229,1.688s-0.996,2.742-0.996,4.855
			c0,2.114,0.332,3.732,0.996,4.856C179.311,181.366,180.387,181.93,181.876,181.93"/>
	</g>
	<g>
		<defs>
			<rect id="SVGID_13_" width="283.465" height="283.465"/>
		</defs>
		<clipPath id="SVGID_14_">
			<use xlink:href="#SVGID_13_"  overflow="visible"/>
		</clipPath>
		<path clip-path="url(#SVGID_14_)" fill="#004997" d="M200.611,176.686c-1.518-0.434-2.702-1.076-3.557-1.932
			c-0.854-0.854-1.279-2.133-1.279-3.84c0-2.059,0.738-3.671,2.215-4.836s3.488-1.748,6.035-1.748c1.059,0,2.102,0.096,3.129,0.285
			c1.029,0.189,2.074,0.473,3.131,0.854c-0.055,0.703-0.189,1.438-0.405,2.194c-0.219,0.758-0.476,1.422-0.772,1.991
			c-0.65-0.271-1.369-0.508-2.154-0.711c-0.786-0.203-1.611-0.305-2.479-0.305c-0.923,0-1.64,0.142-2.154,0.426
			c-0.516,0.285-0.771,0.738-0.771,1.361c0,0.598,0.182,1.016,0.549,1.26c0.365,0.244,0.887,0.476,1.563,0.69l2.315,0.69
			c0.76,0.219,1.444,0.481,2.053,0.793c0.609,0.312,1.132,0.697,1.564,1.158c0.434,0.461,0.772,1.03,1.018,1.707
			c0.244,0.678,0.365,1.504,0.365,2.479c0,1.002-0.211,1.938-0.631,2.805c-0.42,0.867-1.029,1.618-1.828,2.257
			c-0.8,0.637-1.769,1.137-2.906,1.504c-1.137,0.364-2.426,0.549-3.86,0.549c-0.649,0-1.245-0.021-1.787-0.062
			c-0.542-0.039-1.063-0.107-1.565-0.201c-0.502-0.097-0.996-0.211-1.482-0.348c-0.488-0.134-1.018-0.311-1.586-0.527
			c0.056-0.73,0.184-1.47,0.388-2.216c0.203-0.744,0.466-1.469,0.792-2.174c0.895,0.354,1.74,0.617,2.541,0.792
			c0.799,0.178,1.631,0.266,2.499,0.266c0.378,0,0.793-0.033,1.238-0.102c0.446-0.066,0.86-0.189,1.239-0.367
			c0.379-0.175,0.697-0.404,0.955-0.689c0.258-0.284,0.387-0.656,0.387-1.117c0-0.651-0.195-1.117-0.59-1.403
			c-0.394-0.283-0.94-0.533-1.646-0.752L200.611,176.686z"/>
	</g>
	<g>
		<defs>
			<rect id="SVGID_15_" width="283.465" height="283.465"/>
		</defs>
		<clipPath id="SVGID_16_">
			<use xlink:href="#SVGID_15_"  overflow="visible"/>
		</clipPath>
		<path clip-path="url(#SVGID_16_)" fill="#004997" d="M215.812,169.207h-2.644l-0.203-0.812l7.601-9.713h0.936v6.137h4.918
			c0.081,0.406,0.137,0.771,0.163,1.098c0.026,0.325,0.041,0.665,0.041,1.018c0,0.379-0.015,0.744-0.041,1.098
			c-0.026,0.352-0.082,0.744-0.163,1.178h-4.918v8.251c0,0.84,0.066,1.519,0.204,2.032c0.135,0.515,0.332,0.921,0.589,1.219
			c0.257,0.299,0.576,0.502,0.955,0.609c0.379,0.108,0.827,0.162,1.341,0.162c0.407,0,0.806-0.032,1.2-0.102
			c0.393-0.068,0.736-0.128,1.036-0.183c0.188,0.515,0.323,1.05,0.405,1.604s0.121,1.051,0.121,1.483
			c0,0.298-0.006,0.549-0.021,0.752s-0.034,0.397-0.062,0.589c-1.246,0.298-2.533,0.447-3.859,0.447c-2.467,0-4.35-0.575-5.65-1.729
			c-1.3-1.15-1.949-3.027-1.949-5.629V169.207L215.812,169.207z"/>
	</g>
	<g>
		<defs>
			<rect id="SVGID_17_" width="283.465" height="283.465"/>
		</defs>
		<clipPath id="SVGID_18_">
			<use xlink:href="#SVGID_17_"  overflow="visible"/>
		</clipPath>
		<path clip-path="url(#SVGID_18_)" fill="#004997" d="M148.855,199.299c0.545-0.046,1.095-0.085,1.65-0.115
			c0.555-0.029,1.116-0.045,1.684-0.045c0.592,0,1.191,0.061,1.801,0.178c0.609,0.119,1.158,0.341,1.648,0.666
			c0.491,0.324,0.891,0.776,1.198,1.356c0.306,0.58,0.461,1.33,0.461,2.251c0,0.924-0.155,1.671-0.461,2.245
			c-0.31,0.572-0.705,1.024-1.188,1.354c-0.485,0.332-1.025,0.558-1.623,0.674c-0.598,0.119-1.185,0.18-1.764,0.18
			c-0.154,0-0.299-0.003-0.436-0.011c-0.137-0.007-0.264-0.015-0.383-0.025v4.097c-0.225,0.034-0.441,0.06-0.655,0.07
			c-0.213,0.012-0.42,0.018-0.619,0.018c-0.19,0-0.397-0.006-0.621-0.018c-0.226-0.012-0.456-0.036-0.692-0.07V199.299
			L148.855,199.299z M151.445,205.859c0.143,0.023,0.275,0.035,0.398,0.035h0.453c0.294,0,0.585-0.037,0.868-0.114
			c0.283-0.075,0.534-0.204,0.754-0.382c0.218-0.178,0.394-0.41,0.522-0.7c0.129-0.289,0.195-0.646,0.195-1.071
			c0-0.438-0.066-0.809-0.195-1.109c-0.131-0.301-0.305-0.543-0.522-0.727c-0.22-0.184-0.471-0.312-0.754-0.391
			s-0.574-0.115-0.868-0.115c-0.132,0-0.252,0.004-0.363,0.01c-0.113,0.005-0.275,0.02-0.488,0.044V205.859z"/>
	</g>
	<g>
		<defs>
			<rect id="SVGID_19_" width="283.465" height="283.465"/>
		</defs>
		<clipPath id="SVGID_20_">
			<use xlink:href="#SVGID_19_"  overflow="visible"/>
		</clipPath>
		<path clip-path="url(#SVGID_20_)" fill="#004997" d="M159.16,199.139c0.199-0.035,0.406-0.059,0.619-0.068
			c0.214-0.014,0.421-0.02,0.621-0.02c0.201,0,0.408,0.006,0.621,0.02c0.213,0.011,0.426,0.033,0.639,0.068v4.877
			c0.083-0.104,0.191-0.231,0.328-0.381c0.136-0.146,0.305-0.289,0.506-0.426c0.199-0.135,0.443-0.251,0.729-0.345
			c0.282-0.097,0.606-0.144,0.975-0.144c1.017,0,1.787,0.283,2.314,0.853c0.524,0.565,0.789,1.461,0.789,2.677v5.87
			c-0.214,0.036-0.427,0.06-0.64,0.071s-0.42,0.018-0.621,0.018s-0.407-0.006-0.62-0.018s-0.426-0.035-0.639-0.071v-5.196
			c0-0.638-0.1-1.128-0.303-1.472c-0.201-0.343-0.543-0.515-1.027-0.515c-0.201,0-0.408,0.029-0.62,0.09
			c-0.213,0.059-0.404,0.174-0.577,0.346c-0.171,0.171-0.312,0.411-0.425,0.718c-0.113,0.31-0.169,0.709-0.169,1.206v4.823
			c-0.213,0.036-0.426,0.06-0.639,0.071s-0.42,0.018-0.621,0.018c-0.2,0-0.404-0.006-0.611-0.018s-0.416-0.035-0.629-0.071V199.139z
			"/>
	</g>
	<g>
		<defs>
			<rect id="SVGID_21_" width="283.465" height="283.465"/>
		</defs>
		<clipPath id="SVGID_22_">
			<use xlink:href="#SVGID_21_"  overflow="visible"/>
		</clipPath>
		<path clip-path="url(#SVGID_22_)" fill="#004997" d="M174.162,206.073c0-0.283-0.047-0.515-0.143-0.691
			c-0.094-0.177-0.225-0.315-0.391-0.417c-0.165-0.101-0.367-0.169-0.611-0.204c-0.242-0.034-0.512-0.052-0.808-0.052
			c-0.638,0-1.317,0.124-2.039,0.372c-0.166-0.31-0.29-0.599-0.372-0.869c-0.083-0.272-0.123-0.598-0.123-0.978
			c0.52-0.176,1.039-0.307,1.561-0.39c0.52-0.083,1.005-0.124,1.453-0.124c1.229,0,2.189,0.295,2.883,0.887
			c0.691,0.592,1.037,1.537,1.037,2.838v5.32c-0.414,0.129-0.916,0.254-1.508,0.371c-0.59,0.118-1.259,0.178-2.004,0.178
			c-0.604,0-1.156-0.054-1.658-0.16c-0.502-0.104-0.935-0.281-1.295-0.529c-0.36-0.249-0.639-0.568-0.834-0.958
			c-0.193-0.392-0.291-0.87-0.291-1.438c0-0.565,0.121-1.043,0.362-1.428c0.242-0.383,0.556-0.691,0.94-0.922
			c0.384-0.23,0.812-0.396,1.285-0.496c0.473-0.101,0.945-0.15,1.418-0.15c0.344,0,0.722,0.019,1.136,0.055L174.162,206.073
			L174.162,206.073z M174.162,207.898c-0.143-0.021-0.296-0.043-0.461-0.062c-0.166-0.019-0.312-0.026-0.443-0.026
			c-0.578,0-1.035,0.104-1.373,0.312s-0.507,0.541-0.507,1.002c0,0.308,0.063,0.544,0.195,0.71c0.13,0.165,0.286,0.286,0.47,0.362
			c0.184,0.077,0.378,0.124,0.585,0.142s0.39,0.026,0.541,0.026c0.179,0,0.354-0.015,0.532-0.044
			c0.177-0.028,0.331-0.057,0.461-0.08V207.898L174.162,207.898z"/>
	</g>
	<g>
		<defs>
			<rect id="SVGID_23_" width="283.465" height="283.465"/>
		</defs>
		<clipPath id="SVGID_24_">
			<use xlink:href="#SVGID_23_"  overflow="visible"/>
		</clipPath>
		<path clip-path="url(#SVGID_24_)" fill="#004997" d="M178.844,202.936c0.178-0.037,0.346-0.062,0.506-0.08
			c0.159-0.019,0.334-0.025,0.522-0.025c0.178,0,0.353,0.011,0.522,0.035c0.172,0.021,0.342,0.052,0.506,0.089
			c0.035,0.058,0.067,0.144,0.098,0.256c0.029,0.113,0.057,0.229,0.08,0.354c0.023,0.123,0.044,0.248,0.062,0.373
			c0.018,0.123,0.031,0.228,0.043,0.311c0.262-0.367,0.58-0.695,0.959-0.984c0.377-0.289,0.851-0.434,1.418-0.434
			c0.117,0,0.254,0.005,0.407,0.018c0.153,0.012,0.267,0.028,0.337,0.053c0.023,0.117,0.041,0.256,0.055,0.408
			c0.011,0.152,0.018,0.313,0.018,0.479c0,0.201-0.009,0.42-0.027,0.654c-0.018,0.236-0.05,0.463-0.097,0.676
			c-0.131-0.024-0.274-0.035-0.435-0.035h-0.293c-0.201,0-0.426,0.02-0.674,0.061c-0.248,0.043-0.485,0.151-0.709,0.328
			c-0.227,0.178-0.412,0.444-0.56,0.799s-0.222,0.853-0.222,1.489v4.363c-0.213,0.035-0.426,0.06-0.639,0.069
			c-0.214,0.014-0.421,0.019-0.621,0.019c-0.201,0-0.404-0.005-0.611-0.019c-0.207-0.012-0.422-0.034-0.647-0.069L178.844,202.936
			L178.844,202.936z"/>
	</g>
	<g>
		<defs>
			<rect id="SVGID_25_" width="283.465" height="283.465"/>
		</defs>
		<clipPath id="SVGID_26_">
			<use xlink:href="#SVGID_25_"  overflow="visible"/>
		</clipPath>
		<path clip-path="url(#SVGID_26_)" fill="#004997" d="M185.973,202.936c0.166-0.037,0.332-0.062,0.496-0.08
			c0.166-0.019,0.35-0.025,0.551-0.025s0.379,0.008,0.531,0.025c0.153,0.019,0.314,0.043,0.479,0.08
			c0.037,0.06,0.068,0.146,0.099,0.256c0.03,0.113,0.058,0.23,0.08,0.354s0.044,0.245,0.062,0.364
			c0.019,0.119,0.033,0.219,0.045,0.301c0.096-0.177,0.22-0.354,0.371-0.531c0.153-0.178,0.338-0.338,0.551-0.479
			c0.214-0.143,0.451-0.258,0.719-0.348c0.266-0.088,0.564-0.133,0.896-0.133c1.43,0,2.348,0.545,2.748,1.631
			c0.235-0.437,0.569-0.816,1.002-1.144c0.433-0.325,0.979-0.487,1.642-0.487c1.04,0,1.805,0.286,2.296,0.859
			c0.49,0.575,0.734,1.47,0.734,2.688v5.834c-0.424,0.071-0.844,0.106-1.258,0.106s-0.834-0.035-1.26-0.106v-5.179
			c0-0.637-0.08-1.128-0.238-1.471c-0.16-0.345-0.481-0.515-0.968-0.515c-0.2,0-0.399,0.028-0.594,0.088s-0.373,0.17-0.532,0.328
			c-0.16,0.16-0.29,0.386-0.39,0.674c-0.103,0.289-0.151,0.664-0.151,1.128v4.946c-0.426,0.07-0.846,0.105-1.259,0.105
			c-0.414,0-0.834-0.035-1.259-0.105v-5.18c0-0.637-0.079-1.128-0.24-1.471c-0.159-0.344-0.48-0.516-0.965-0.516
			c-0.202,0-0.403,0.029-0.604,0.088c-0.201,0.061-0.382,0.177-0.541,0.348c-0.16,0.171-0.287,0.411-0.382,0.718
			c-0.095,0.308-0.141,0.709-0.141,1.206v4.807c-0.427,0.07-0.847,0.105-1.261,0.105s-0.834-0.035-1.26-0.105V202.936z"/>
	</g>
	<g>
		<defs>
			<rect id="SVGID_27_" width="283.465" height="283.465"/>
		</defs>
		<clipPath id="SVGID_28_">
			<use xlink:href="#SVGID_27_"  overflow="visible"/>
		</clipPath>
		<path clip-path="url(#SVGID_28_)" fill="#004997" d="M206.137,206.073c0-0.283-0.048-0.515-0.143-0.691
			c-0.096-0.176-0.225-0.315-0.391-0.417c-0.166-0.101-0.369-0.169-0.611-0.204c-0.243-0.034-0.512-0.052-0.809-0.052
			c-0.638,0-1.317,0.124-2.039,0.372c-0.166-0.31-0.289-0.599-0.371-0.869c-0.084-0.272-0.125-0.598-0.125-0.978
			c0.521-0.176,1.041-0.307,1.562-0.39s1.005-0.124,1.454-0.124c1.229,0,2.189,0.295,2.882,0.887s1.037,1.537,1.037,2.838v5.32
			c-0.414,0.129-0.916,0.254-1.508,0.371c-0.591,0.118-1.259,0.178-2.003,0.178c-0.604,0-1.156-0.054-1.658-0.16
			c-0.503-0.104-0.936-0.281-1.295-0.529c-0.361-0.249-0.639-0.568-0.834-0.958c-0.194-0.392-0.292-0.87-0.292-1.438
			c0-0.565,0.122-1.043,0.362-1.428c0.242-0.383,0.557-0.691,0.94-0.922s0.813-0.396,1.285-0.496c0.474-0.101,0.946-0.15,1.419-0.15
			c0.344,0,0.721,0.019,1.135,0.055v-0.214H206.137z M206.137,207.898c-0.143-0.021-0.297-0.043-0.462-0.062
			c-0.166-0.019-0.312-0.026-0.442-0.026c-0.578,0-1.037,0.104-1.375,0.312c-0.336,0.207-0.506,0.541-0.506,1.002
			c0,0.308,0.064,0.544,0.195,0.71c0.131,0.165,0.286,0.286,0.471,0.362c0.184,0.077,0.377,0.124,0.584,0.142
			s0.39,0.026,0.541,0.026c0.18,0,0.354-0.015,0.532-0.044c0.177-0.028,0.331-0.057,0.462-0.08V207.898L206.137,207.898z"/>
	</g>
	<g>
		<defs>
			<rect id="SVGID_29_" width="283.465" height="283.465"/>
		</defs>
		<clipPath id="SVGID_30_">
			<use xlink:href="#SVGID_29_"  overflow="visible"/>
		</clipPath>
		<path clip-path="url(#SVGID_30_)" fill="#004997" d="M216.971,209.939c0.143,0.235,0.26,0.512,0.354,0.824
			c0.095,0.313,0.143,0.682,0.143,1.108c-0.474,0.188-0.917,0.31-1.329,0.362c-0.414,0.055-0.847,0.08-1.296,0.08
			c-0.768,0-1.436-0.121-2.004-0.362c-0.567-0.242-1.037-0.577-1.409-1.002c-0.373-0.427-0.652-0.933-0.843-1.519
			c-0.19-0.584-0.284-1.221-0.284-1.906c0-0.674,0.092-1.301,0.275-1.879c0.184-0.58,0.461-1.088,0.833-1.524
			c0.373-0.438,0.837-0.781,1.394-1.029s1.198-0.372,1.934-0.372c0.259,0,0.498,0.006,0.718,0.02
			c0.218,0.012,0.428,0.033,0.629,0.068c0.201,0.036,0.403,0.084,0.604,0.145c0.199,0.058,0.426,0.135,0.675,0.229
			c0,0.272-0.037,0.576-0.107,0.913c-0.071,0.337-0.183,0.659-0.337,0.968c-0.354-0.119-0.665-0.197-0.931-0.238
			c-0.267-0.042-0.571-0.063-0.913-0.063c-0.734,0-1.286,0.24-1.659,0.718c-0.372,0.48-0.56,1.162-0.56,2.049
			c0,0.957,0.201,1.656,0.604,2.095c0.402,0.437,0.946,0.655,1.631,0.655c0.179,0,0.341-0.004,0.488-0.01s0.292-0.02,0.435-0.045
			c0.144-0.021,0.287-0.058,0.437-0.104C216.596,210.068,216.77,210.01,216.971,209.939"/>
	</g>
	<g>
		<defs>
			<rect id="SVGID_31_" width="283.465" height="283.465"/>
		</defs>
		<clipPath id="SVGID_32_">
			<use xlink:href="#SVGID_31_"  overflow="visible"/>
		</clipPath>
		<path clip-path="url(#SVGID_32_)" fill="#004997" d="M218.177,202.936c0.271-0.061,0.511-0.093,0.718-0.099
			s0.399-0.008,0.576-0.008c0.237,0,0.479,0.005,0.729,0.017s0.473,0.041,0.674,0.09l1.915,7.996l2.164-7.996
			c0.39-0.07,0.792-0.105,1.206-0.105c0.177,0,0.365,0.002,0.566,0.008c0.2,0.006,0.449,0.038,0.744,0.098l-3.422,11.332
			c-0.143,0.448-0.311,0.821-0.506,1.116c-0.195,0.296-0.417,0.527-0.665,0.693c-0.248,0.165-0.526,0.278-0.833,0.345
			s-0.639,0.098-0.993,0.098c-0.331,0-0.63-0.021-0.896-0.062c-0.268-0.041-0.529-0.099-0.789-0.167
			c-0.014-0.061-0.02-0.109-0.02-0.152v-0.133c0-0.283,0.033-0.552,0.1-0.806c0.063-0.257,0.144-0.5,0.238-0.737
			c0.105,0.037,0.248,0.069,0.426,0.098c0.178,0.029,0.354,0.045,0.531,0.045c0.143,0,0.284-0.01,0.428-0.025
			c0.141-0.02,0.279-0.071,0.416-0.16c0.136-0.088,0.263-0.229,0.381-0.417c0.119-0.188,0.225-0.455,0.318-0.797l0.303-1.101
			c-0.131,0.013-0.275,0.021-0.436,0.025c-0.16,0.006-0.322,0.01-0.488,0.01h-0.371c-0.118,0-0.226-0.013-0.319-0.035
			L218.177,202.936z"/>
	</g>
	<g>
		<defs>
			<rect id="SVGID_33_" width="283.465" height="283.465"/>
		</defs>
		<clipPath id="SVGID_34_">
			<use xlink:href="#SVGID_33_"  overflow="visible"/>
		</clipPath>
		<polygon clip-path="url(#SVGID_34_)" fill="#004997" points="143.865,73.223 139.857,95.954 122.175,81.118 103.387,87.956 
			124.94,147.17 143.729,140.331 135.852,118.692 153.527,133.556 157.541,110.798 165.417,132.437 184.205,125.599 162.652,66.385 
					"/>
	</g>
	<g>
		<defs>
			<rect id="SVGID_35_" width="283.465" height="283.465"/>
		</defs>
		<clipPath id="SVGID_36_">
			<use xlink:href="#SVGID_35_"  overflow="visible"/>
		</clipPath>
		<path clip-path="url(#SVGID_36_)" fill="none" stroke="#000000" stroke-width="0.25" stroke-miterlimit="10" d="M169.057,85.307
			l-28.03,28.03c-3.411,3.411-3.157,9.197,0.568,12.922c3.725,3.725,9.51,3.979,12.92,0.568l28.03-28.03
			c3.411-3.412,3.157-9.197-0.567-12.922C178.253,82.15,172.468,81.895,169.057,85.307z"/>
	</g>
	<g>
		<defs>
			<rect id="SVGID_37_" width="283.465" height="283.465"/>
		</defs>
		<clipPath id="SVGID_38_">
			<use xlink:href="#SVGID_37_"  overflow="visible"/>
		</clipPath>
		<path clip-path="url(#SVGID_38_)" fill="#004997" d="M154.698,127.009c-3.507,3.507-9.468,3.252-13.287-0.567
			c-3.819-3.82-4.074-9.781-0.567-13.287l28.03-28.03c3.508-3.507,9.468-3.253,13.287,0.567c3.819,3.82,4.073,9.781,0.567,13.288
			L154.698,127.009z"/>
	</g>
	<g>
		<defs>
			<rect id="SVGID_39_" width="283.465" height="283.465"/>
		</defs>
		<clipPath id="SVGID_40_">
			<use xlink:href="#SVGID_39_"  overflow="visible"/>
		</clipPath>
		<path clip-path="url(#SVGID_40_)" fill="#FFFFFF" d="M154.111,126.421c-3.184,3.183-8.616,2.929-12.112-0.567
			s-3.75-8.93-0.567-12.113l28.03-28.029c3.183-3.183,8.615-2.929,12.111,0.567c3.495,3.496,3.751,8.93,0.567,12.113
			L154.111,126.421z"/>
	</g>
</g>
<g>
	<g>
		<defs>
			<path id="SVGID_41_" d="M169.461,85.712l-28.03,28.029c-3.182,3.184-2.928,8.617,0.568,12.113s8.931,3.751,12.112,0.567
				l28.029-28.029c3.184-3.183,2.93-8.617-0.568-12.113c-1.854-1.855-4.256-2.797-6.576-2.797
				C172.943,83.482,170.955,84.218,169.461,85.712"/>
		</defs>
		<clipPath id="SVGID_42_">
			<use xlink:href="#SVGID_41_"  overflow="visible"/>
		</clipPath>
		
			<linearGradient id="SVGID_43_" gradientUnits="userSpaceOnUse" x1="-165.3276" y1="260.2568" x2="-164.328" y2="260.2568" gradientTransform="matrix(39.5744 -39.5744 39.5744 39.5744 -3614.5527 -16716.2031)">
			<stop  offset="0" style="stop-color:#7F8BC0"/>
			<stop  offset="0.3168" style="stop-color:#AAB1D6"/>
			<stop  offset="1" style="stop-color:#AAB1D6"/>
		</linearGradient>
		<polygon clip-path="url(#SVGID_42_)" fill="url(#SVGID_43_)" points="115.188,106.543 161.786,59.944 208.387,106.543 
			161.786,153.143 		"/>
	</g>
</g>
<g>
	<g>
		<defs>
			<path id="SVGID_44_" d="M169.057,85.307L155.902,98.46c-1.838,1.84-0.312,6.351,3.416,10.076
				c3.724,3.725,8.234,5.253,10.074,3.413l13.152-13.152c3.411-3.412,3.157-9.197-0.566-12.922c-1.971-1.97-4.517-2.969-6.981-2.969
				C172.799,82.906,170.665,83.699,169.057,85.307"/>
		</defs>
		<clipPath id="SVGID_45_">
			<use xlink:href="#SVGID_44_"  overflow="visible"/>
		</clipPath>
		
			<linearGradient id="SVGID_46_" gradientUnits="userSpaceOnUse" x1="-166.4927" y1="264.3564" x2="-165.4923" y2="264.3564" gradientTransform="matrix(22.6609 -22.6609 22.6609 22.6609 -2058.1025 -9654.6338)">
			<stop  offset="0" style="stop-color:#576DAE"/>
			<stop  offset="1" style="stop-color:#004997"/>
		</linearGradient>
		<polygon clip-path="url(#SVGID_45_)" fill="url(#SVGID_46_)" points="138.623,98.347 170.012,66.959 201.398,98.347 
			170.012,129.735 		"/>
	</g>
</g>
<g>
	<g>
		<defs>
			<path id="SVGID_47_" d="M171.643,87.223l-28.699,28.702c-3.154,3.154-3.027,6.492-0.89,8.63c0.104,0.103,0.216,0.194,0.329,0.284
				c-1.429-1.759-1.48-4.178,1.435-7.09l29.651-29.654c2.913-2.913,5.331-2.861,7.091-1.432c-0.09-0.113-0.181-0.226-0.283-0.33
				c-0.991-0.991-2.24-1.55-3.61-1.55C175.08,84.783,173.335,85.531,171.643,87.223"/>
		</defs>
		<clipPath id="SVGID_48_">
			<use xlink:href="#SVGID_47_"  overflow="visible"/>
		</clipPath>
		
			<linearGradient id="SVGID_49_" gradientUnits="userSpaceOnUse" x1="-159.8916" y1="261.7266" x2="-158.8911" y2="261.7266" gradientTransform="matrix(40.0555 0 0 40.0555 6545.0244 -10378.8105)">
			<stop  offset="0" style="stop-color:#AAB1D6"/>
			<stop  offset="0.3168" style="stop-color:#FFFFFF"/>
			<stop  offset="0.7032" style="stop-color:#FFFFFF"/>
			<stop  offset="1" style="stop-color:#AAB1D6"/>
		</linearGradient>
		<rect x="139.788" y="84.783" clip-path="url(#SVGID_48_)" fill="url(#SVGID_49_)" width="40.771" height="40.056"/>
	</g>
</g>
<g>
	<g>
		<defs>
			<path id="SVGID_50_" d="M162.572,111.126c1.154,0.711,2.292,1.2,3.324,1.435l16.455-16.456l-0.07-0.072
				c-0.999-0.245-2.096-0.728-3.204-1.411L162.572,111.126z"/>
		</defs>
		<clipPath id="SVGID_51_">
			<use xlink:href="#SVGID_50_"  overflow="visible"/>
		</clipPath>
		
			<linearGradient id="SVGID_52_" gradientUnits="userSpaceOnUse" x1="-167.3164" y1="267.2393" x2="-166.3164" y2="267.2393" gradientTransform="matrix(17.4006 -17.4006 17.4006 17.4006 -1574.9619 -7449.2305)">
			<stop  offset="0" style="stop-color:#576DAE"/>
			<stop  offset="1" style="stop-color:#7F8BC0"/>
		</linearGradient>
		<polygon clip-path="url(#SVGID_51_)" fill="url(#SVGID_52_)" points="153.604,103.591 172.463,84.731 191.322,103.591 
			172.463,122.451 		"/>
	</g>
</g>
<g>
	<g>
		<defs>
			<rect id="SVGID_53_" width="283.465" height="283.465"/>
		</defs>
		<clipPath id="SVGID_54_">
			<use xlink:href="#SVGID_53_"  overflow="visible"/>
		</clipPath>
		<path clip-path="url(#SVGID_54_)" fill="#C3C7E2" d="M147.925,125.773c1.317,0.746,2.589,1.142,3.632,1.128l14.34-14.34
			c-1.033-0.235-2.168-0.725-3.323-1.435L147.925,125.773z"/>
	</g>
	<g>
		<defs>
			<rect id="SVGID_55_" width="283.465" height="283.465"/>
		</defs>
		<clipPath id="SVGID_56_">
			<use xlink:href="#SVGID_55_"  overflow="visible"/>
		</clipPath>
		<path clip-path="url(#SVGID_56_)" fill="#004997" d="M169.057,85.307L155.902,98.46c-1.84,1.84-0.312,6.351,3.414,10.076
			c3.726,3.725,8.236,5.253,10.076,3.414l13.152-13.153c3.411-3.412,3.158-9.197-0.566-12.922
			C178.253,82.15,172.468,81.895,169.057,85.307 M182.141,98.392l-13.15,13.152c-1.588,1.587-5.829,0.023-9.268-3.413
			c-3.437-3.437-5-7.68-3.414-9.266l13.152-13.153c3.184-3.183,8.617-2.928,12.113,0.567
			C185.068,89.775,185.325,95.209,182.141,98.392"/>
	</g>
	<g>
		<defs>
			<rect id="SVGID_57_" width="283.465" height="283.465"/>
		</defs>
		<clipPath id="SVGID_58_">
			<use xlink:href="#SVGID_57_"  overflow="visible"/>
		</clipPath>
		<path clip-path="url(#SVGID_58_)" fill="#939DCB" d="M161.786,139.079c-18.203,0-33.012-14.809-33.012-33.012
			c0-18.203,14.809-33.012,33.012-33.012c18.202,0,33.013,14.809,33.013,33.012C194.799,124.27,179.988,139.079,161.786,139.079
			 M161.786,75.229c-17.003,0-30.837,13.833-30.837,30.837c0,17.003,13.834,30.837,30.837,30.837
			c17.004,0,30.837-13.834,30.837-30.837C192.623,89.062,178.79,75.229,161.786,75.229"/>
	</g>
	<g>
		<defs>
			<rect id="SVGID_59_" width="283.465" height="283.465"/>
		</defs>
		<clipPath id="SVGID_60_">
			<use xlink:href="#SVGID_59_"  overflow="visible"/>
		</clipPath>
		<path clip-path="url(#SVGID_60_)" fill="#939DCB" d="M142.087,110.126c-0.529,0-0.993-0.386-1.075-0.925
			c-0.158-1.054-0.239-2.109-0.239-3.135c0-11.586,9.426-21.013,21.013-21.013c1.026,0,2.081,0.08,3.135,0.24
			c0.595,0.089,1.002,0.644,0.913,1.238c-0.09,0.594-0.645,1.002-1.238,0.913c-0.945-0.143-1.892-0.216-2.81-0.216
			c-10.388,0-18.838,8.451-18.838,18.838c0,0.917,0.073,1.863,0.216,2.81c0.089,0.594-0.318,1.148-0.913,1.238
			C142.195,110.122,142.141,110.126,142.087,110.126"/>
	</g>
	<g>
		<defs>
			<rect id="SVGID_61_" width="283.465" height="283.465"/>
		</defs>
		<clipPath id="SVGID_62_">
			<use xlink:href="#SVGID_61_"  overflow="visible"/>
		</clipPath>
		<path clip-path="url(#SVGID_62_)" fill="#939DCB" d="M161.786,127.081c-1.022,0-2.079-0.081-3.134-0.24
			c-0.594-0.09-1.004-0.644-0.914-1.238c0.091-0.594,0.645-1.002,1.238-0.913c0.948,0.143,1.894,0.215,2.81,0.215
			c10.388,0,18.838-8.45,18.838-18.838c0-0.918-0.071-1.863-0.215-2.809c-0.091-0.594,0.317-1.148,0.911-1.238
			c0.596-0.091,1.15,0.319,1.238,0.913c0.16,1.053,0.241,2.108,0.241,3.134C182.801,117.653,173.373,127.081,161.786,127.081"/>
	</g>
	<g>
		<defs>
			<rect id="SVGID_63_" width="283.465" height="283.465"/>
		</defs>
		<clipPath id="SVGID_64_">
			<use xlink:href="#SVGID_63_"  overflow="visible"/>
		</clipPath>
		<path clip-path="url(#SVGID_64_)" fill="#939DCB" d="M81.195,128.596c-0.307,0-0.613-0.112-0.854-0.338
			c-0.504-0.472-0.53-1.263-0.059-1.766c0.184-0.196,4.54-4.816,8.626-6.304c2.628-0.957,5.177-0.785,7.641-0.621
			c2.513,0.17,5.112,0.343,7.91-0.677c2.778-1.011,4.842-2.941,7.026-4.985c2.311-2.163,4.701-4.4,8.07-5.627
			c4.467-1.625,9.404-0.936,9.612-0.907c0.682,0.1,1.155,0.733,1.057,1.415c-0.098,0.684-0.735,1.158-1.414,1.06
			c-0.045-0.006-4.536-0.624-8.4,0.782c-2.889,1.051-4.991,3.019-7.217,5.102c-2.271,2.125-4.62,4.324-7.879,5.51
			c-3.295,1.198-6.29,0.997-8.932,0.822c-2.309-0.155-4.487-0.301-6.619,0.475c-3.521,1.282-7.615,5.62-7.656,5.663
			C81.861,128.463,81.528,128.596,81.195,128.596"/>
	</g>
	<g>
		<defs>
			<rect id="SVGID_65_" width="283.465" height="283.465"/>
		</defs>
		<clipPath id="SVGID_66_">
			<use xlink:href="#SVGID_65_"  overflow="visible"/>
		</clipPath>
		<path clip-path="url(#SVGID_66_)" fill="#939DCB" d="M83.592,135.186c-0.306,0-0.613-0.112-0.854-0.337
			c-0.504-0.473-0.53-1.264-0.058-1.767c0.183-0.196,4.54-4.816,8.626-6.304c2.627-0.955,5.176-0.785,7.64-0.621
			c2.512,0.169,5.112,0.342,7.911-0.677c2.778-1.011,4.841-2.941,7.026-4.985c2.311-2.163,4.7-4.4,8.07-5.627
			c3.493-1.27,7.329-1.117,8.818-0.992c0.688,0.059,1.199,0.663,1.141,1.351c-0.058,0.687-0.67,1.191-1.351,1.141
			c-1.323-0.111-4.725-0.252-7.753,0.85c-2.889,1.051-4.991,3.019-7.217,5.102c-2.271,2.126-4.62,4.324-7.879,5.51
			c-3.295,1.198-6.29,0.998-8.932,0.822c-2.307-0.155-4.487-0.3-6.619,0.476c-3.53,1.285-7.615,5.619-7.656,5.662
			C84.259,135.052,83.926,135.186,83.592,135.186"/>
	</g>
	<g>
		<defs>
			<rect id="SVGID_67_" width="283.465" height="283.465"/>
		</defs>
		<clipPath id="SVGID_68_">
			<use xlink:href="#SVGID_67_"  overflow="visible"/>
		</clipPath>
		<path clip-path="url(#SVGID_68_)" fill="#939DCB" d="M85.991,141.774c-0.306,0-0.613-0.112-0.854-0.337
			c-0.504-0.473-0.53-1.264-0.058-1.767c0.183-0.196,4.54-4.816,8.626-6.304c2.628-0.956,5.176-0.785,7.64-0.621
			c2.513,0.169,5.112,0.342,7.911-0.677c2.778-1.011,4.841-2.941,7.026-4.985c2.311-2.163,4.7-4.4,8.07-5.627
			c4.469-1.625,9.405-0.935,9.612-0.907c0.682,0.1,1.155,0.732,1.057,1.415c-0.098,0.684-0.739,1.155-1.414,1.06
			c-0.045-0.006-4.537-0.625-8.4,0.782c-2.889,1.051-4.991,3.019-7.217,5.102c-2.271,2.126-4.62,4.324-7.879,5.51
			c-3.295,1.199-6.29,0.999-8.932,0.822c-2.309-0.156-4.487-0.3-6.619,0.476c-3.53,1.285-7.615,5.619-7.656,5.662
			C86.658,141.642,86.325,141.774,85.991,141.774"/>
	</g>
</g>
</svg>
